<svg width="96" height="96" viewBox="0 0 96 96" fill="none" xmlns="http://www.w3.org/2000/svg" role="img" aria-label="CyberLineup">
  <rect width="96" height="96" rx="22" fill="#05070D"/>
  <rect x="8" y="8" width="80" height="80" rx="18" fill="#0B0F18" stroke="url(#frame)" stroke-width="2"/>
  <path d="M48 16L73 26V45C73 61.5 63.4 75.3 48 81C32.6 75.3 23 61.5 23 45V26L48 16Z" fill="#0B0F18" stroke="#263244" stroke-width="3" stroke-linejoin="round"/>
  <path d="M48 25L63.5 31.2V43.4C63.5 54.5 57.9 63.8 48 68.8C38.1 63.8 32.5 54.5 32.5 43.4V31.2L48 25Z" fill="#111827" stroke="url(#shield)" stroke-width="2.5" stroke-linejoin="round"/>
  <path d="M36 58C43.6 45.5 52 38.3 63 35.4" stroke="#22D3EE" stroke-width="3.4" stroke-linecap="round" stroke-dasharray="1 7"/>
  <path d="M48 34V61" stroke="#FF5500" stroke-width="3.5" stroke-linecap="round"/>
  <path d="M34.5 47.5H61.5" stroke="#FF5500" stroke-width="3.5" stroke-linecap="round"/>
  <circle cx="48" cy="47.5" r="9.3" fill="#0B0F18" stroke="#F59E0B" stroke-width="3.2"/>
  <circle cx="48" cy="47.5" r="3.1" fill="#22D3EE"/>
  <defs>
    <linearGradient id="frame" x1="10" y1="8" x2="86" y2="88" gradientUnits="userSpaceOnUse">
      <stop stop-color="#22D3EE" stop-opacity="0.85"/>
      <stop offset="1" stop-color="#FF5500" stop-opacity="0.9"/>
    </linearGradient>
    <linearGradient id="shield" x1="32" y1="25" x2="65" y2="68" gradientUnits="userSpaceOnUse">
      <stop stop-color="#22D3EE"/>
      <stop offset="1" stop-color="#FF5500"/>
    </linearGradient>
  </defs>
</svg>
