<svg width="96" height="96" viewBox="0 0 96 96" fill="none" xmlns="http://www.w3.org/2000/svg" role="img" aria-label="CyberLineup">
  <rect width="96" height="96" rx="22" fill="#05070D"/>
  <path d="M71.5 24.5C65.7 18.9 57.5 15.5 48.4 15.5C30.2 15.5 15.5 30.2 15.5 48.4C15.5 66.6 30.2 81.3 48.4 81.3C57.8 81.3 66.3 77.4 72.2 71.1" stroke="url(#cmark)" stroke-width="10" stroke-linecap="round"/>
  <path d="M31 61C40.5 42.2 54.1 32.3 72 31" stroke="#22D3EE" stroke-width="4" stroke-linecap="round" stroke-dasharray="1 8"/>
  <path d="M49 47H79" stroke="#FF5500" stroke-width="4" stroke-linecap="round"/>
  <path d="M64 32V62" stroke="#FF5500" stroke-width="4" stroke-linecap="round"/>
  <circle cx="64" cy="47" r="10" fill="#0B0F18" stroke="#F59E0B" stroke-width="4"/>
  <circle cx="64" cy="47" r="3.5" fill="#22D3EE"/>
  <path d="M24 24L32 32M24 72L32 64" stroke="#8B5CF6" stroke-width="3" stroke-linecap="round"/>
  <defs>
    <linearGradient id="cmark" x1="18" y1="18" x2="76" y2="79" gradientUnits="userSpaceOnUse">
      <stop stop-color="#22D3EE"/>
      <stop offset="0.48" stop-color="#3B82F6"/>
      <stop offset="1" stop-color="#FF5500"/>
    </linearGradient>
  </defs>
</svg>
